<mxfile modified="2022-10-27T08:46:02.301Z" host="Electron" agent="5.0 (Windows NT 10.0; Win64; x64) AppleWebKit/537.36 (KHTML, like Gecko) draw.io/20.3.0 Chrome/104.0.5112.114 Electron/20.1.3 Safari/537.36" etag="ZtVBn9X281eKrHszlBLL" compressed="false" version="20.3.0" type="device">
  <diagram id="5vKPIbCIWK__K9a_hM_l" name="System Notification Management">
    <mxGraphModel dx="920" dy="606" grid="1" gridSize="10" guides="1" tooltips="1" connect="1" arrows="1" fold="1" page="1" pageScale="1" pageWidth="827" pageHeight="1169" math="0" shadow="0">
      <root>
        <mxCell id="6zsalb_4Q6Wy_RO658KX-0" />
        <mxCell id="aUDsEq78Ny2xMxmlCQFK-10" value="Diagram/Use Case" style="" parent="6zsalb_4Q6Wy_RO658KX-0" />
        <mxCell id="AuJjZfkRCKlEVFrfjfjo-0" value="" style="endArrow=open;endFill=1;endSize=12;html=1;strokeColor=#000000;fontSize=12;entryX=0;entryY=1;entryDx=0;entryDy=0;exitX=1;exitY=0.5;exitDx=0;exitDy=0;" edge="1" parent="aUDsEq78Ny2xMxmlCQFK-10" source="AuJjZfkRCKlEVFrfjfjo-1" target="AuJjZfkRCKlEVFrfjfjo-3">
          <mxGeometry width="160" relative="1" as="geometry">
            <mxPoint x="200" y="210" as="sourcePoint" />
            <mxPoint x="290" y="220" as="targetPoint" />
          </mxGeometry>
        </mxCell>
        <mxCell id="AuJjZfkRCKlEVFrfjfjo-1" value="&amp;lt;&amp;lt;actor&amp;gt;&amp;gt;&lt;br&gt;&lt;b&gt;Authorised&lt;br&gt;User&lt;br&gt;&lt;/b&gt;" style="text;html=1;align=center;verticalAlign=middle;dashed=0;fillColor=#ffffff;strokeColor=#000000;" vertex="1" parent="aUDsEq78Ny2xMxmlCQFK-10">
          <mxGeometry x="120" y="270" width="80" height="40" as="geometry" />
        </mxCell>
        <mxCell id="AuJjZfkRCKlEVFrfjfjo-2" value="" style="fontStyle=1;align=left;verticalAlign=top;childLayout=stackLayout;horizontal=1;horizontalStack=0;resizeParent=1;resizeParentMax=0;resizeLast=0;marginBottom=0;" vertex="1" parent="aUDsEq78Ny2xMxmlCQFK-10">
          <mxGeometry x="280" y="120" width="120" height="40" as="geometry" />
        </mxCell>
        <mxCell id="AuJjZfkRCKlEVFrfjfjo-3" value="&lt;p style=&quot;line-height: 0.9;&quot;&gt;List &lt;br&gt;ReMappings&lt;/p&gt;" style="html=1;align=left;spacingLeft=4;verticalAlign=middle;strokeColor=none;fillColor=none;fontStyle=1;spacingTop=2;" vertex="1" parent="AuJjZfkRCKlEVFrfjfjo-2">
          <mxGeometry width="120" height="20" as="geometry" />
        </mxCell>
        <mxCell id="AuJjZfkRCKlEVFrfjfjo-4" value="" style="shape=ellipse;" vertex="1" parent="AuJjZfkRCKlEVFrfjfjo-3">
          <mxGeometry x="1" width="20" height="10" relative="1" as="geometry">
            <mxPoint x="-25" y="5" as="offset" />
          </mxGeometry>
        </mxCell>
        <mxCell id="AuJjZfkRCKlEVFrfjfjo-5" value="" style="line;strokeWidth=1;fillColor=none;align=left;verticalAlign=middle;spacingTop=-1;spacingLeft=3;spacingRight=3;rotatable=0;labelPosition=right;points=[];portConstraint=eastwest;" vertex="1" parent="AuJjZfkRCKlEVFrfjfjo-2">
          <mxGeometry y="20" width="120" height="8" as="geometry" />
        </mxCell>
        <mxCell id="AuJjZfkRCKlEVFrfjfjo-6" value="Filtered,Sorted,Paged Summaries" style="html=1;align=left;spacingLeft=4;verticalAlign=top;strokeColor=none;fillColor=none;fontSize=8;spacing=-2;" vertex="1" parent="AuJjZfkRCKlEVFrfjfjo-2">
          <mxGeometry y="28" width="120" height="12" as="geometry" />
        </mxCell>
        <mxCell id="AuJjZfkRCKlEVFrfjfjo-7" value="" style="fontStyle=1;align=left;verticalAlign=top;childLayout=stackLayout;horizontal=1;horizontalStack=0;resizeParent=1;resizeParentMax=0;resizeLast=0;marginBottom=0;" vertex="1" parent="aUDsEq78Ny2xMxmlCQFK-10">
          <mxGeometry x="280" y="190" width="120" height="40" as="geometry" />
        </mxCell>
        <mxCell id="AuJjZfkRCKlEVFrfjfjo-8" value="&lt;p style=&quot;line-height: 0.9;&quot;&gt;View &lt;br&gt;ReMapping&lt;/p&gt;" style="html=1;align=left;spacingLeft=4;verticalAlign=middle;strokeColor=none;fillColor=none;fontStyle=1;spacingTop=2;" vertex="1" parent="AuJjZfkRCKlEVFrfjfjo-7">
          <mxGeometry width="120" height="20" as="geometry" />
        </mxCell>
        <mxCell id="AuJjZfkRCKlEVFrfjfjo-9" value="" style="shape=ellipse;" vertex="1" parent="AuJjZfkRCKlEVFrfjfjo-8">
          <mxGeometry x="1" width="20" height="10" relative="1" as="geometry">
            <mxPoint x="-25" y="5" as="offset" />
          </mxGeometry>
        </mxCell>
        <mxCell id="AuJjZfkRCKlEVFrfjfjo-10" value="" style="line;strokeWidth=1;fillColor=none;align=left;verticalAlign=middle;spacingTop=-1;spacingLeft=3;spacingRight=3;rotatable=0;labelPosition=right;points=[];portConstraint=eastwest;" vertex="1" parent="AuJjZfkRCKlEVFrfjfjo-7">
          <mxGeometry y="20" width="120" height="8" as="geometry" />
        </mxCell>
        <mxCell id="AuJjZfkRCKlEVFrfjfjo-11" value="..." style="html=1;align=left;spacingLeft=4;verticalAlign=top;strokeColor=none;fillColor=none;fontSize=8;spacing=-2;" vertex="1" parent="AuJjZfkRCKlEVFrfjfjo-7">
          <mxGeometry y="28" width="120" height="12" as="geometry" />
        </mxCell>
        <mxCell id="AuJjZfkRCKlEVFrfjfjo-12" value="" style="fontStyle=1;align=left;verticalAlign=top;childLayout=stackLayout;horizontal=1;horizontalStack=0;resizeParent=1;resizeParentMax=0;resizeLast=0;marginBottom=0;" vertex="1" parent="aUDsEq78Ny2xMxmlCQFK-10">
          <mxGeometry x="280" y="350" width="120" height="40" as="geometry" />
        </mxCell>
        <mxCell id="AuJjZfkRCKlEVFrfjfjo-13" value="&lt;p style=&quot;line-height: 0.9;&quot;&gt;Add &lt;br&gt;ReMapping&lt;/p&gt;" style="html=1;align=left;spacingLeft=4;verticalAlign=middle;strokeColor=none;fillColor=none;fontStyle=1;spacingTop=2;" vertex="1" parent="AuJjZfkRCKlEVFrfjfjo-12">
          <mxGeometry width="120" height="20" as="geometry" />
        </mxCell>
        <mxCell id="AuJjZfkRCKlEVFrfjfjo-14" value="" style="shape=ellipse;" vertex="1" parent="AuJjZfkRCKlEVFrfjfjo-13">
          <mxGeometry x="1" width="20" height="10" relative="1" as="geometry">
            <mxPoint x="-25" y="5" as="offset" />
          </mxGeometry>
        </mxCell>
        <mxCell id="AuJjZfkRCKlEVFrfjfjo-15" value="" style="line;strokeWidth=1;fillColor=none;align=left;verticalAlign=middle;spacingTop=-1;spacingLeft=3;spacingRight=3;rotatable=0;labelPosition=right;points=[];portConstraint=eastwest;" vertex="1" parent="AuJjZfkRCKlEVFrfjfjo-12">
          <mxGeometry y="20" width="120" height="8" as="geometry" />
        </mxCell>
        <mxCell id="AuJjZfkRCKlEVFrfjfjo-16" value="Time limited" style="html=1;align=left;spacingLeft=4;verticalAlign=top;strokeColor=none;fillColor=none;fontSize=8;spacing=-2;" vertex="1" parent="AuJjZfkRCKlEVFrfjfjo-12">
          <mxGeometry y="28" width="120" height="12" as="geometry" />
        </mxCell>
        <mxCell id="AuJjZfkRCKlEVFrfjfjo-17" value="" style="fontStyle=1;align=left;verticalAlign=top;childLayout=stackLayout;horizontal=1;horizontalStack=0;resizeParent=1;resizeParentMax=0;resizeLast=0;marginBottom=0;" vertex="1" parent="aUDsEq78Ny2xMxmlCQFK-10">
          <mxGeometry x="280" y="270" width="120" height="40" as="geometry" />
        </mxCell>
        <mxCell id="AuJjZfkRCKlEVFrfjfjo-18" value="&lt;p style=&quot;line-height: 0.9;&quot;&gt;Edit&lt;br&gt;ReMapping&lt;/p&gt;" style="html=1;align=left;spacingLeft=4;verticalAlign=middle;strokeColor=none;fillColor=none;fontStyle=1;spacingTop=2;" vertex="1" parent="AuJjZfkRCKlEVFrfjfjo-17">
          <mxGeometry width="120" height="20" as="geometry" />
        </mxCell>
        <mxCell id="AuJjZfkRCKlEVFrfjfjo-19" value="" style="shape=ellipse;" vertex="1" parent="AuJjZfkRCKlEVFrfjfjo-18">
          <mxGeometry x="1" width="20" height="10" relative="1" as="geometry">
            <mxPoint x="-25" y="5" as="offset" />
          </mxGeometry>
        </mxCell>
        <mxCell id="AuJjZfkRCKlEVFrfjfjo-20" value="" style="line;strokeWidth=1;fillColor=none;align=left;verticalAlign=middle;spacingTop=-1;spacingLeft=3;spacingRight=3;rotatable=0;labelPosition=right;points=[];portConstraint=eastwest;" vertex="1" parent="AuJjZfkRCKlEVFrfjfjo-17">
          <mxGeometry y="20" width="120" height="8" as="geometry" />
        </mxCell>
        <mxCell id="AuJjZfkRCKlEVFrfjfjo-21" value="Time limited" style="html=1;align=left;spacingLeft=4;verticalAlign=top;strokeColor=none;fillColor=none;fontSize=8;spacing=-2;" vertex="1" parent="AuJjZfkRCKlEVFrfjfjo-17">
          <mxGeometry y="28" width="120" height="12" as="geometry" />
        </mxCell>
        <mxCell id="AuJjZfkRCKlEVFrfjfjo-22" value="" style="fontStyle=1;align=left;verticalAlign=top;childLayout=stackLayout;horizontal=1;horizontalStack=0;resizeParent=1;resizeParentMax=0;resizeLast=0;marginBottom=0;" vertex="1" parent="aUDsEq78Ny2xMxmlCQFK-10">
          <mxGeometry x="280" y="430" width="120" height="40" as="geometry" />
        </mxCell>
        <mxCell id="AuJjZfkRCKlEVFrfjfjo-23" value="&lt;p style=&quot;line-height: 0.9;&quot;&gt;Chage State&lt;/p&gt;" style="html=1;align=left;spacingLeft=4;verticalAlign=middle;strokeColor=none;fillColor=none;fontStyle=1;spacingTop=2;" vertex="1" parent="AuJjZfkRCKlEVFrfjfjo-22">
          <mxGeometry width="120" height="20" as="geometry" />
        </mxCell>
        <mxCell id="AuJjZfkRCKlEVFrfjfjo-24" value="" style="shape=ellipse;" vertex="1" parent="AuJjZfkRCKlEVFrfjfjo-23">
          <mxGeometry x="1" width="20" height="10" relative="1" as="geometry">
            <mxPoint x="-25" y="5" as="offset" />
          </mxGeometry>
        </mxCell>
        <mxCell id="AuJjZfkRCKlEVFrfjfjo-25" value="" style="line;strokeWidth=1;fillColor=none;align=left;verticalAlign=middle;spacingTop=-1;spacingLeft=3;spacingRight=3;rotatable=0;labelPosition=right;points=[];portConstraint=eastwest;" vertex="1" parent="AuJjZfkRCKlEVFrfjfjo-22">
          <mxGeometry y="20" width="120" height="8" as="geometry" />
        </mxCell>
        <mxCell id="AuJjZfkRCKlEVFrfjfjo-26" value="Time limited" style="html=1;align=left;spacingLeft=4;verticalAlign=top;strokeColor=none;fillColor=none;fontSize=8;spacing=-2;" vertex="1" parent="AuJjZfkRCKlEVFrfjfjo-22">
          <mxGeometry y="28" width="120" height="12" as="geometry" />
        </mxCell>
        <mxCell id="AuJjZfkRCKlEVFrfjfjo-27" style="edgeStyle=orthogonalEdgeStyle;rounded=0;orthogonalLoop=1;jettySize=auto;html=1;entryX=1;entryY=0.25;entryDx=0;entryDy=0;endArrow=block;endFill=0;" edge="1" parent="aUDsEq78Ny2xMxmlCQFK-10" target="AuJjZfkRCKlEVFrfjfjo-21">
          <mxGeometry relative="1" as="geometry">
            <mxPoint x="400" y="440" as="sourcePoint" />
            <Array as="points">
              <mxPoint x="440" y="440" />
              <mxPoint x="440" y="300" />
            </Array>
          </mxGeometry>
        </mxCell>
        <mxCell id="AuJjZfkRCKlEVFrfjfjo-28" style="edgeStyle=orthogonalEdgeStyle;rounded=0;orthogonalLoop=1;jettySize=auto;html=1;entryX=0.5;entryY=1;entryDx=0;entryDy=0;endArrow=block;endFill=0;" edge="1" parent="aUDsEq78Ny2xMxmlCQFK-10" source="AuJjZfkRCKlEVFrfjfjo-13" target="AuJjZfkRCKlEVFrfjfjo-21">
          <mxGeometry relative="1" as="geometry" />
        </mxCell>
        <mxCell id="AuJjZfkRCKlEVFrfjfjo-29" value="" style="endArrow=open;endFill=1;endSize=12;html=1;strokeColor=#000000;fontSize=12;entryX=0;entryY=1;entryDx=0;entryDy=0;exitX=1;exitY=0.5;exitDx=0;exitDy=0;" edge="1" parent="aUDsEq78Ny2xMxmlCQFK-10" source="AuJjZfkRCKlEVFrfjfjo-1" target="AuJjZfkRCKlEVFrfjfjo-23">
          <mxGeometry width="160" relative="1" as="geometry">
            <mxPoint x="210" y="299.9999999999998" as="sourcePoint" />
            <mxPoint x="290" y="149.99999999999977" as="targetPoint" />
          </mxGeometry>
        </mxCell>
        <mxCell id="AuJjZfkRCKlEVFrfjfjo-30" value="" style="endArrow=open;endFill=1;endSize=12;html=1;strokeColor=#000000;fontSize=12;entryX=0;entryY=1;entryDx=0;entryDy=0;exitX=1;exitY=0.5;exitDx=0;exitDy=0;" edge="1" parent="aUDsEq78Ny2xMxmlCQFK-10" source="AuJjZfkRCKlEVFrfjfjo-1" target="AuJjZfkRCKlEVFrfjfjo-13">
          <mxGeometry width="160" relative="1" as="geometry">
            <mxPoint x="220" y="309.9999999999998" as="sourcePoint" />
            <mxPoint x="290" y="459.9999999999998" as="targetPoint" />
          </mxGeometry>
        </mxCell>
        <mxCell id="AuJjZfkRCKlEVFrfjfjo-31" value="" style="endArrow=open;endFill=1;endSize=12;html=1;strokeColor=#000000;fontSize=12;entryX=0;entryY=1;entryDx=0;entryDy=0;exitX=1;exitY=0.5;exitDx=0;exitDy=0;" edge="1" parent="aUDsEq78Ny2xMxmlCQFK-10" source="AuJjZfkRCKlEVFrfjfjo-1" target="AuJjZfkRCKlEVFrfjfjo-18">
          <mxGeometry width="160" relative="1" as="geometry">
            <mxPoint x="230" y="319.9999999999998" as="sourcePoint" />
            <mxPoint x="290" y="379.9999999999998" as="targetPoint" />
          </mxGeometry>
        </mxCell>
        <mxCell id="AuJjZfkRCKlEVFrfjfjo-32" value="" style="endArrow=open;endFill=1;endSize=12;html=1;strokeColor=#000000;fontSize=12;entryX=0;entryY=1;entryDx=0;entryDy=0;exitX=1;exitY=0.5;exitDx=0;exitDy=0;" edge="1" parent="aUDsEq78Ny2xMxmlCQFK-10" source="AuJjZfkRCKlEVFrfjfjo-1" target="AuJjZfkRCKlEVFrfjfjo-8">
          <mxGeometry width="160" relative="1" as="geometry">
            <mxPoint x="240" y="329.9999999999998" as="sourcePoint" />
            <mxPoint x="290" y="299.9999999999998" as="targetPoint" />
          </mxGeometry>
        </mxCell>
        <mxCell id="fQ8Tb4TJHlXgaxiWL6We-0" value="Title/Diagram" parent="6zsalb_4Q6Wy_RO658KX-0" />
        <mxCell id="pR05Vp6-c_UAXGHB-9SX-1" value="&lt;font style=&quot;font-size: 12px&quot;&gt;Diagram: Base System Logical Module -&amp;nbsp;Functionality -&amp;nbsp;System Notifications Management&lt;/font&gt;" style="text;strokeColor=none;fillColor=none;html=1;fontSize=24;fontStyle=2;verticalAlign=middle;align=left;shadow=0;glass=0;comic=0;opacity=30;fontColor=#808080;" parent="fQ8Tb4TJHlXgaxiWL6We-0" vertex="1">
          <mxGeometry x="120" y="490" width="520" height="20" as="geometry" />
        </mxCell>
        <mxCell id="FPPdZPXUPv9n0KayTUjE-1" value="Remaps permit logically redirecting retired/expired resources to replacement resources temporarily or permanently.&lt;br&gt;" style="shape=note;whiteSpace=wrap;html=1;size=14;verticalAlign=top;align=left;spacingTop=-6;strokeWidth=1;fontSize=12;fontStyle=2;spacingRight=16;" parent="fQ8Tb4TJHlXgaxiWL6We-0" vertex="1">
          <mxGeometry x="480" y="310" width="160" height="80" as="geometry" />
        </mxCell>
        <mxCell id="kJFmuFiU3wEKo-ty_FbZ-0" value="About" style="" parent="6zsalb_4Q6Wy_RO658KX-0" />
        <UserObject label="" tooltip="ABOUT&#xa;&#xa;Functionality &#xa;within the Base Logical Module&#xa;for handling common Diagnostic Tracing.&#xa;Diagnostic tracing is not saved to the Core relational database -- it usually goes to a rolling text log file, and sometimes is saved asynchronously to an cloud service.&#xa;&#xa;System specific Diagnostic log files should be local to the system (for both latency and access reasons) -- then exported to a central location for security and/or enterprise monitoring reasons." id="XdkydOQAid-UxDZSyXBN-0">
          <mxCell style="shape=image;html=1;verticalAlign=top;verticalLabelPosition=bottom;labelBackgroundColor=#ffffff;imageAspect=0;aspect=fixed;image=https://cdn1.iconfinder.com/data/icons/hawcons/32/699014-icon-28-information-128.png;shadow=0;dashed=0;fontFamily=Helvetica;fontSize=12;fontColor=#000000;align=center;strokeColor=#000000;fillColor=#505050;dashPattern=1 1;" parent="kJFmuFiU3wEKo-ty_FbZ-0" vertex="1">
            <mxGeometry x="660" y="380" width="20" height="20" as="geometry" />
          </mxCell>
        </UserObject>
      </root>
    </mxGraphModel>
  </diagram>
</mxfile>
